<?xml version="1.0" encoding="utf-8"?>
<!-- Generator: Adobe Illustrator 24.0.1, SVG Export Plug-In . SVG Version: 6.00 Build 0)  -->
<svg version="1.1" id="Layer_1" xmlns="http://www.w3.org/2000/svg" xmlns:xlink="http://www.w3.org/1999/xlink" x="0px" y="0px"
	 viewBox="0 0 1080 1080" style="enable-background:new 0 0 1080 1080;" xml:space="preserve">
<style type="text/css">
	.st0{fill:#0D71BA;stroke:#000000;stroke-width:20;stroke-miterlimit:10;}
	.st1{fill:#FFFFFF;stroke:#000000;stroke-width:12;stroke-miterlimit:10;}
	.st2{fill:none;stroke:#000000;stroke-miterlimit:10;}
	.st3{stroke:#000000;stroke-miterlimit:10;}
	.st4{fill:#F2CB15;}
	.st5{fill:#F2F2F3;}
	.st6{fill:#F2CB15;stroke:#000000;stroke-width:20;stroke-miterlimit:10;}
	.st7{fill:#F2F2F3;stroke:#000000;stroke-width:20;stroke-miterlimit:10;}
	.st8{fill:none;}
</style>
<g>
	<g>
		<circle class="st4" cx="540" cy="540" r="385.1"/>
		<path d="M540,935.1c-53.3,0-105.1-10.4-153.8-31.1c-47-19.9-89.3-48.4-125.6-84.7c-36.3-36.3-64.8-78.5-84.7-125.6
			c-20.6-48.7-31.1-100.5-31.1-153.8s10.4-105.1,31.1-153.8c19.9-47,48.4-89.3,84.7-125.6c36.3-36.3,78.5-64.8,125.6-84.7
			c48.7-20.6,100.5-31.1,153.8-31.1s105.1,10.4,153.8,31.1c47,19.9,89.3,48.4,125.6,84.7c36.3,36.3,64.8,78.5,84.7,125.6
			c20.6,48.7,31.1,100.5,31.1,153.8S924.6,645.1,904,693.8c-19.9,47-48.4,89.3-84.7,125.6c-36.3,36.3-78.5,64.8-125.6,84.7
			C645.1,924.6,593.3,935.1,540,935.1z M540,164.9c-206.8,0-375.1,168.3-375.1,375.1c0,206.8,168.3,375.1,375.1,375.1
			S915.1,746.8,915.1,540C915.1,333.2,746.8,164.9,540,164.9z"/>
	</g>
	<g>
		<path class="st5" d="M798.5,540c0,142.8-115.7,258.5-258.5,258.5S281.5,682.8,281.5,540H798.5z"/>
		<path d="M540,808.5c-71.7,0-139.2-27.9-189.9-78.7S271.5,611.7,271.5,540v-10h537.1v10c0,71.7-27.9,139.2-78.7,189.9
			S611.7,808.5,540,808.5z M291.7,550c5.3,132.4,114.6,238.5,248.3,238.5S783.1,682.4,788.3,550H291.7z"/>
	</g>
	<g>
		<path d="M422.1,317.8v31.3h-64.9v28.8h52.3v34.9h-52.3v48.7H308V317.8H422.1z"/>
		<path d="M535.7,350.2c-3.4-2.1-7-3.5-10.9-4.1c-0.9-0.1-1.7-0.3-2.5-0.3c-0.8-0.1-1.5-0.1-2.3-0.1c-2.7,0-5.2,0.4-7.4,1.2
			c-2.3,0.8-3.7,2.1-4.3,3.9c0,0.2,0,0.3,0,0.5c0,0.2-0.1,0.4-0.2,0.7v0.5c-0.2,0.3-0.3,0.7-0.5,1.1c0,3.8,2.8,6.8,8.4,9.1
			c5.6,2.3,11.9,4.2,18.8,5.5c0.3,0.2,0.6,0.3,0.9,0.3c0.3,0.1,0.6,0.1,0.9,0.1c16.7,3.2,29.9,8.2,39.7,15.1
			c9.8,6.9,15,17.2,15.8,30.9v2c0,15.9-6.7,28.2-20.2,36.7c-13.4,8.6-28.4,12.8-44.7,12.8c-17.4,0-33.1-3.8-47.1-11.5
			c-14-7.7-21-20.5-21-38.5l46-0.2c1.4,5.4,3.8,9.2,7.4,11.5c3.6,2.3,7.4,3.7,11.5,4.3c0.8,0,1.5,0,2.4,0.1c0.8,0.1,1.6,0.1,2.4,0.1
			c4.4,0,7.9-1.1,10.7-3.3c2.8-2.2,4.3-4.5,4.6-7.1c0-0.1,0-0.3,0-0.3c0-0.1,0-0.2,0-0.3c0-0.5,0-0.9-0.1-1.4
			c-0.1-0.5-0.2-0.8-0.3-1.1c-0.5-1.5-1.4-2.9-2.8-4.3c-1.4-1.4-3.3-2.4-5.7-3.2c-1.2-0.3-2.4-0.6-3.6-0.9c-1.2-0.3-2.4-0.6-3.6-0.9
			c-1.1-0.3-2.1-0.6-3.2-0.8c-1.1-0.2-2.2-0.5-3.4-0.8c-14.9-3.8-28.6-8.7-41.1-15c-12.5-6.2-18.8-17.2-18.8-33c0-0.7,0-1.5,0.1-2.4
			c0.1-0.8,0.2-1.6,0.3-2.4c0-0.8,0-1.5,0.1-2.1c0.1-0.7,0.2-1.3,0.3-1.9c1.4-10.4,6.7-19.5,16.1-27.4c9.4-7.9,22.7-11.8,40-11.8
			l5.6-0.2c0.9,0.2,1.8,0.2,2.8,0.2c1,0,1.9,0.1,2.8,0.2c13.4,0.6,25.8,4.1,37.2,10.6c11.4,6.5,18.3,18.6,20.5,36.3l-46-0.2
			C541,355.1,539.1,352.3,535.7,350.2z"/>
		<path d="M707.1,316.2c21.9,0.2,37.3,4.3,46.1,12.3c8.8,8.1,13.4,17,13.9,26.7c0,0.3,0,0.6,0,0.9s0,0.6,0,0.9
			c0,8.9-2.4,17.1-7.2,24.5c-4.8,7.5-10.1,11.5-16,12.1c10.2,4.7,16.4,10.2,18.6,16.5c2.2,6.3,3.3,14.2,3.3,23.5v7.7
			c0,4.8,0.3,8.5,0.8,11c0.5,2.5,2.4,4.1,5.5,4.9v4.5h-50.7c-0.9-4.7-1.5-9.1-1.7-13.3c-0.2-4.2-0.3-8-0.3-11.3
			c-0.2-6-0.6-10.9-1.5-14.5c-0.8-3.7-3.3-6.3-7.5-7.8c-1.7-0.8-3.6-1.3-5.9-1.6c-2.3-0.3-4.6-0.5-7-0.5c-1.4,0-2.7,0-4.1,0.1
			c-1.4,0.1-2.8,0.1-4.3,0.1c-0.2,0-0.3,0-0.5,0c-0.2,0-0.3,0-0.5,0c-1.4,0-2.7,0-3.9,0.1c-1.3,0.1-2.5,0.1-3.7,0.1v48.4h-49.1
			V316.2H707.1z M678.9,377.9h28.2c4.4,0.2,7.7-1.1,10-3.8c2.3-2.7,3.5-5.6,3.5-8.8c0-0.1,0-0.3,0-0.6c0-0.2,0-0.4,0-0.6
			c-0.3-3-1.7-5.7-4.2-8.2s-6.1-3.7-10.9-3.7l-26.6-0.2V377.9z"/>
	</g>
</g>
</svg>
